<?xml version="1.0" standalone="no"?>
<!DOCTYPE svg PUBLIC "-//W3C//DTD SVG 20010904//EN"
 "http://www.w3.org/TR/2001/REC-SVG-20010904/DTD/svg10.dtd">
<svg version="1.0" xmlns="http://www.w3.org/2000/svg"
 width="950.000000pt" height="950.000000pt" viewBox="0 0 950.000000 950.000000"
 preserveAspectRatio="xMidYMid meet">
<metadata>
Created by potrace 1.14, written by Peter Selinger 2001-2017
</metadata>
<g transform="translate(0.000000,950.000000) scale(0.100000,-0.100000)"
fill="#000000" stroke="none">
<path d="M3055 9382 c-21 -5 -256 -87 -290 -102 -25 -11 -228 -84 -235 -85 -6
0 -65 -23 -100 -38 -14 -5 -29 -11 -35 -13 -21 -4 -271 -96 -303 -110 -18 -9
-41 -17 -50 -19 -10 -2 -35 -10 -55 -19 -20 -8 -37 -12 -37 -9 0 3 -6 1 -12
-4 -7 -6 -31 -16 -53 -23 -22 -7 -44 -15 -50 -19 -5 -3 -14 -6 -20 -7 -13 -3
-125 -43 -150 -55 -11 -5 -76 -29 -145 -53 -69 -24 -137 -49 -152 -55 -16 -6
-28 -7 -28 -3 0 4 -4 2 -8 -4 -4 -6 -54 -27 -112 -47 -265 -92 -350 -127 -403
-168 -46 -35 -117 -124 -117 -147 0 -7 -5 -23 -12 -35 -18 -32 -21 -54 -21
-132 1 -74 4 -95 20 -135 6 -14 23 -61 38 -105 15 -44 40 -114 55 -155 15 -41
49 -133 75 -205 42 -116 58 -161 85 -230 4 -11 22 -60 40 -110 17 -49 37 -103
43 -120 7 -16 12 -32 13 -35 0 -3 4 -13 7 -22 4 -10 10 -26 14 -35 3 -10 7
-20 8 -23 1 -3 5 -14 9 -25 4 -11 21 -58 38 -105 16 -47 35 -96 41 -110 6 -14
11 -31 13 -39 2 -12 36 -103 54 -146 5 -11 16 -40 24 -65 8 -25 22 -65 31 -90
9 -25 25 -67 36 -95 10 -27 24 -63 30 -80 7 -16 13 -34 14 -40 0 -5 4 -17 8
-25 3 -8 25 -67 47 -130 23 -63 53 -133 67 -155 33 -52 95 -110 147 -138 37
-20 57 -27 121 -42 28 -7 115 -7 147 0 27 5 176 56 227 77 14 6 31 12 36 14
12 3 502 181 525 191 8 3 20 7 25 9 6 1 47 16 93 33 107 40 113 39 27 -5 -38
-20 -96 -54 -129 -75 -32 -21 -62 -39 -67 -39 -5 0 -9 -4 -9 -9 0 -4 -17 -20
-37 -33 -43 -29 -192 -175 -238 -232 -32 -41 -111 -156 -134 -196 -45 -79
-116 -235 -126 -279 -2 -9 -11 -41 -20 -71 -9 -30 -18 -64 -19 -75 -2 -11 -4
-20 -5 -20 -1 0 -4 -16 -7 -35 -2 -19 -7 -48 -10 -65 -10 -55 -13 -309 -3
-380 12 -98 17 -125 28 -163 5 -18 9 -33 9 -35 -1 -1 18 -67 37 -127 1 -3 6
-16 12 -30 6 -14 19 -45 29 -70 20 -52 68 -143 96 -182 10 -14 18 -29 18 -32
0 -3 21 -33 48 -68 161 -214 349 -369 575 -476 37 -18 70 -32 72 -32 2 0 16
-5 32 -12 15 -6 33 -12 38 -13 6 -2 33 -10 60 -20 28 -9 59 -19 70 -21 11 -2
43 -8 70 -14 68 -14 113 -20 177 -24 30 -1 59 -6 65 -9 6 -4 13 -4 16 0 10 9
107 9 107 0 0 -5 5 -5 12 -1 7 4 30 9 53 10 36 3 65 7 195 29 l35 6 -30 -15
c-16 -8 -64 -27 -105 -41 -41 -15 -84 -30 -95 -35 -16 -7 -52 -19 -75 -25 -11
-3 -46 -17 -65 -26 -12 -6 -27 -11 -35 -12 -8 -2 -21 -6 -27 -10 -7 -5 -13 -5
-13 0 0 4 -4 3 -8 -2 -4 -6 -38 -21 -77 -34 -38 -13 -89 -32 -112 -42 -24 -10
-47 -19 -52 -19 -12 0 -219 -78 -254 -96 -41 -22 -115 -92 -141 -134 -80 -128
-81 -270 -4 -450 20 -46 27 -65 39 -105 6 -22 14 -44 18 -50 3 -5 6 -13 7 -17
1 -5 3 -10 4 -13 1 -3 3 -8 5 -12 1 -5 4 -15 8 -23 29 -75 69 -188 72 -200 3
-14 47 -134 62 -170 3 -8 7 -17 8 -20 1 -3 4 -12 7 -20 4 -8 11 -28 16 -45 21
-62 83 -231 91 -250 5 -11 17 -42 26 -70 24 -71 49 -139 80 -220 14 -38 28
-74 29 -80 2 -5 6 -19 10 -30 5 -11 16 -42 26 -70 10 -27 22 -59 26 -70 4 -11
8 -22 9 -25 1 -3 5 -13 9 -22 4 -9 8 -22 10 -30 1 -7 11 -38 23 -68 22 -58 35
-92 38 -100 1 -3 4 -12 8 -20 3 -8 27 -73 53 -144 26 -72 56 -146 67 -165 47
-83 176 -173 268 -187 86 -13 149 -5 246 32 38 13 75 27 83 29 15 4 151 53
275 100 39 14 78 28 89 30 10 2 24 10 32 16 8 7 17 9 21 6 3 -4 18 0 32 8 14
7 67 28 116 45 50 18 115 42 145 53 30 12 57 22 60 22 5 0 48 16 95 35 11 4
49 18 85 30 36 12 74 25 85 30 81 31 110 42 190 71 50 17 101 36 115 42 30 12
28 12 64 22 16 4 41 14 55 21 14 8 33 14 42 14 9 0 19 3 23 7 4 5 11 8 14 9 4
0 14 3 22 7 8 3 49 17 90 32 41 15 84 30 95 35 11 4 72 27 135 50 167 62 221
102 280 205 65 113 67 230 7 390 -59 160 -104 285 -106 298 0 4 -8 21 -16 37
-8 16 -15 31 -15 32 2 4 -8 31 -30 93 -10 28 -37 102 -60 165 -23 63 -47 129
-53 145 -7 17 -12 32 -13 35 0 3 -4 14 -9 25 -30 74 -33 85 -24 85 5 0 9 -6 9
-13 0 -11 14 -40 69 -142 15 -27 84 -135 103 -160 68 -88 226 -246 289 -287
15 -9 32 -23 40 -30 46 -45 299 -174 389 -198 25 -7 54 -16 65 -20 68 -27 176
-45 316 -55 36 -2 70 -5 75 -6 5 -1 11 0 14 1 17 6 52 5 56 -2 3 -4 11 -5 17
-1 7 4 32 8 57 9 25 0 61 4 80 7 19 4 53 9 75 12 22 3 65 13 95 22 30 8 62 16
71 18 59 12 306 126 321 149 4 6 8 8 8 4 0 -9 108 63 169 112 64 52 220 210
239 242 9 15 20 28 24 28 4 0 8 6 8 14 0 8 4 16 9 18 14 5 86 124 131 217 43
89 93 221 83 221 -3 0 -1 6 5 13 5 6 20 64 33 127 19 95 23 144 23 285 -1 175
-4 210 -31 330 -8 39 -18 82 -20 98 -3 15 -9 30 -14 33 -5 3 -9 11 -9 19 0 8
-5 26 -12 42 -6 15 -12 30 -13 33 -14 42 -57 132 -76 160 -9 14 -16 27 -15 30
2 9 -117 182 -154 224 -43 49 -135 140 -185 184 -106 95 -314 214 -455 262
-36 12 -74 26 -85 30 -11 4 -45 13 -75 19 -30 6 -66 14 -80 17 -62 13 -136 17
-275 18 -159 0 -226 -7 -340 -35 -22 -6 -49 -12 -60 -14 -29 -5 -171 -59 -240
-91 -75 -35 -196 -110 -276 -170 -123 -94 -295 -287 -354 -397 -11 -20 -23
-37 -27 -37 -5 0 -8 -9 -8 -20 0 -11 -3 -20 -8 -20 -4 0 -21 -30 -37 -68 -16
-37 -34 -70 -39 -74 -6 -4 -7 -8 -3 -8 4 0 3 -8 -2 -19 -13 -24 -60 -185 -67
-230 -3 -18 -8 -43 -11 -55 -13 -54 -18 -133 -17 -266 2 -168 1 -167 26 -284
18 -92 19 -118 0 -69 -22 61 -25 68 -28 78 -1 6 -37 102 -79 215 -76 204 -124
336 -129 355 -2 6 -8 23 -14 38 -7 16 -12 30 -12 32 0 2 -5 16 -12 32 -6 15
-12 33 -14 38 -9 36 -39 106 -61 145 -27 48 -95 120 -113 120 -5 0 -10 4 -10
8 0 11 -41 30 -112 52 -62 19 -173 19 -224 0 -16 -7 -36 -13 -44 -15 -8 -2
-82 -29 -165 -60 -82 -31 -168 -63 -190 -70 -22 -7 -113 -40 -202 -73 -90 -33
-163 -57 -163 -53 0 3 -4 1 -8 -4 -4 -6 -34 -19 -67 -30 -33 -11 -66 -23 -73
-28 -7 -6 -12 -6 -12 0 0 6 19 18 43 29 23 10 45 23 49 29 4 5 8 7 8 3 0 -7
59 29 87 52 7 5 15 10 18 10 3 0 18 11 33 25 15 14 31 25 35 25 16 0 205 183
250 242 12 17 28 36 35 43 6 8 12 18 12 23 0 6 4 12 8 14 5 2 24 28 43 58 19
30 40 64 47 75 7 11 20 36 28 55 9 19 29 62 44 95 26 55 66 172 76 220 2 11 6
31 9 45 24 113 29 169 29 325 -1 88 -6 192 -13 230 -7 39 -14 83 -17 98 -2 16
-6 33 -9 38 -4 5 -8 17 -10 26 -4 23 -43 142 -55 168 -44 102 -112 229 -142
270 -104 139 -203 248 -287 315 -24 19 -48 40 -55 45 -17 16 -96 70 -141 96
-111 63 -335 159 -335 142 0 -3 -7 0 -15 7 -8 7 -15 10 -15 6 0 -3 -12 -1 -27
5 -30 12 -39 14 -99 24 -115 20 -163 23 -309 20 -88 -1 -167 -5 -175 -8 -8 -3
-28 -8 -45 -11 -16 -2 -52 -9 -80 -14 -27 -6 -51 -9 -53 -8 -1 2 51 22 115 46
65 23 154 56 198 72 44 17 86 30 93 31 6 0 12 4 12 8 0 5 6 6 14 3 8 -3 17 -1
20 5 4 6 26 16 49 23 23 6 44 12 47 13 3 1 19 7 35 14 17 6 50 19 75 27 25 9
54 20 65 24 11 5 54 21 95 36 142 51 179 73 247 144 21 22 78 124 73 132 -1 2
4 16 10 33 20 52 13 153 -15 235 -14 41 -35 102 -46 135 -11 33 -24 70 -29 83
-23 51 -29 69 -41 107 -6 22 -15 45 -19 50 -7 10 -20 56 -18 65 1 3 -5 16 -12
30 -8 14 -15 30 -17 35 -1 6 -16 48 -34 95 -17 47 -32 90 -33 95 -1 6 -10 27
-19 49 -9 21 -17 41 -17 44 0 3 -25 74 -56 156 -30 83 -66 183 -80 221 -14 39
-29 79 -34 90 -11 25 -24 69 -21 73 1 1 -5 15 -13 30 -8 15 -29 68 -46 117
-40 115 -69 192 -86 232 -8 17 -14 35 -14 39 0 6 -48 141 -87 244 -3 8 -7 20
-9 25 -1 6 -8 24 -15 40 -7 17 -13 32 -13 35 -1 3 -12 23 -25 45 -52 85 -136
149 -231 176 -45 12 -148 19 -185 11z m35 -3182 c0 -5 -5 -10 -11 -10 -5 0 -7
5 -4 10 3 6 8 10 11 10 2 0 4 -4 4 -10z m1045 -2810 c-3 -5 -12 -10 -18 -10
-7 0 -6 4 3 10 19 12 23 12 15 0z m-210 -79 c-3 -2 -16 -6 -28 -8 -15 -2 -18
0 -9 5 14 9 45 12 37 3z"/>
</g>
</svg>
