<svg width="1440" height="1024" viewBox="0 0 1440 1024" fill="none" xmlns="http://www.w3.org/2000/svg">
<rect width="1440" height="1024" fill="#F5F5F5"/>
<rect width="1440" height="1024" fill="white"/>
<g filter="url(#filter0_d_0_1)">
<path d="M315.803 597.126C312.444 599.997 312.048 605.046 314.918 608.405L361.693 663.142C364.563 666.501 369.613 666.897 372.972 664.027C376.331 661.156 376.727 656.106 373.857 652.748L332.279 604.093L380.934 562.515C384.293 559.645 384.689 554.595 381.819 551.236C378.948 547.877 373.898 547.481 370.539 550.351L315.803 597.126ZM543.5 497.208L550.005 492.551L550.005 492.551L543.5 497.208ZM671.5 258.708L673.436 250.946L673.33 250.919L673.224 250.896L671.5 258.708ZM1030.8 535.025C1035.11 535.965 1039.38 533.227 1040.32 528.91L1055.64 458.559C1056.58 454.242 1053.84 449.98 1049.52 449.04C1045.21 448.1 1040.94 450.838 1040 455.155L1026.39 517.689L963.851 504.071C959.534 503.131 955.272 505.869 954.332 510.186C953.392 514.503 956.129 518.765 960.447 519.705L1030.8 535.025ZM320.374 611.184C344.187 613.051 363.184 608.126 378.204 598.06C393.118 588.065 403.395 573.483 410.729 557.243C425.205 525.183 429.143 484.23 433.423 453.629C435.631 437.841 437.862 425.203 441.237 416.787C442.911 412.615 444.574 410.259 445.983 409.051C447.096 408.096 448.214 407.676 450.032 407.883C452.234 408.134 455.702 409.373 460.765 412.852C465.757 416.281 471.803 421.541 479.09 429.084C493.665 444.171 512.506 467.655 536.995 501.865L550.005 492.551C525.369 458.136 505.991 433.902 490.597 417.967C482.9 410 476.024 403.923 469.825 399.664C463.697 395.454 457.704 392.653 451.843 391.986C445.598 391.275 440.052 393.059 435.568 396.905C431.379 400.496 428.511 405.536 426.388 410.83C422.17 421.346 419.744 435.919 417.577 451.413C413.107 483.374 409.42 521.264 396.146 550.658C389.605 565.144 380.976 576.941 369.296 584.769C357.723 592.525 342.438 596.865 321.626 595.233L320.374 611.184ZM536.995 501.865C561.55 536.166 579.102 558.025 591.35 569.68C597.221 575.266 603.007 579.651 608.564 580.972C611.695 581.716 615.326 581.616 618.66 579.598C621.835 577.677 623.583 574.708 624.566 572.095C626.43 567.138 626.62 560.549 626.253 553.826C625.868 546.789 624.777 538.347 623.276 528.981C620.285 510.309 615.479 486.875 610.864 462.176C601.507 412.094 592.899 356.464 599.078 316.388C602.159 296.41 608.712 281.753 619.235 273.222C629.471 264.925 645.16 261.089 669.776 266.52L673.224 250.896C645.715 244.827 624.451 248.397 609.16 260.793C594.155 272.956 586.607 292.28 583.265 313.95C576.601 357.171 585.868 415.51 595.136 465.115C599.834 490.26 604.528 513.1 607.478 531.512C608.948 540.688 609.937 548.49 610.276 554.698C610.632 561.22 610.187 564.876 609.59 566.462C609.343 567.121 609.404 566.498 610.376 565.909C611.509 565.224 612.423 565.443 612.263 565.405C611.238 565.162 608.148 563.579 602.38 558.089C591.351 547.594 574.575 526.875 550.005 492.551L536.995 501.865ZM669.564 266.47C757.802 288.481 835.597 337.132 897.113 389.297C958.633 441.465 1003.45 496.794 1025.77 531.532L1039.23 522.884C1016.05 486.789 970.167 430.268 907.462 377.094C844.753 323.918 764.798 273.735 673.436 250.946L669.564 266.47Z" fill="#64FFDA"/>
</g>
<defs>
<filter id="filter0_d_0_1" x="309" y="248.004" width="750.822" height="425.941" filterUnits="userSpaceOnUse" color-interpolation-filters="sRGB">
<feFlood flood-opacity="0" result="BackgroundImageFix"/>
<feColorMatrix in="SourceAlpha" type="matrix" values="0 0 0 0 0 0 0 0 0 0 0 0 0 0 0 0 0 0 127 0" result="hardAlpha"/>
<feOffset dy="4"/>
<feGaussianBlur stdDeviation="2"/>
<feComposite in2="hardAlpha" operator="out"/>
<feColorMatrix type="matrix" values="0 0 0 0 0 0 0 0 0 0 0 0 0 0 0 0 0 0 0.25 0"/>
<feBlend mode="normal" in2="BackgroundImageFix" result="effect1_dropShadow_0_1"/>
<feBlend mode="normal" in="SourceGraphic" in2="effect1_dropShadow_0_1" result="shape"/>
</filter>
</defs>
</svg>
