<svg width="353" height="397" viewBox="0 0 353 397" fill="none" xmlns="http://www.w3.org/2000/svg">
<path d="M103.604 25C103.604 25 102.245 37.0887 103.604 44.5921C107.277 64.8743 131.562 63.244 136.521 83.1913C138.661 91.7999 137.848 106 137.848 106" stroke="#64FFDA" stroke-width="25" stroke-linecap="round"/>
<path d="M159.604 13C159.604 13 158.245 25.0887 159.604 32.5921C163.277 52.8743 187.562 51.244 192.521 71.1913C194.661 79.7999 193.848 94 193.848 94" stroke="#64FFDA" stroke-width="25" stroke-linecap="round"/>
<path d="M282.4 130.75H66.1875C58.8793 130.75 52.95 136.713 52.95 144.062L52.9555 272.75C52.9555 302.148 76.6727 326 105.906 326H211.806C241.033 326 264.75 302.148 264.75 272.75H282.4C321.357 272.75 353 240.922 353 201.75C353 162.578 321.34 130.75 282.4 130.75ZM282.4 237.25H264.75V166.25H282.4C301.843 166.25 317.7 182.197 317.7 201.75C317.7 221.303 301.87 237.25 282.4 237.25ZM308.875 343.75H8.825C3.95139 343.75 0 347.744 0 352.625C0 367.324 11.8531 379.25 26.475 379.25H291.225C305.847 379.25 317.7 367.33 317.7 352.625C317.7 347.744 313.729 343.75 308.875 343.75Z" fill="#64FFDA"/>
</svg>
