<svg width="751" height="426" viewBox="0 0 751 426" fill="none" xmlns="http://www.w3.org/2000/svg">
<g filter="url(#filter0_d_3_5)">
<path d="M6.80278 349.126C3.44387 351.997 3.0478 357.046 5.91815 360.405L52.6931 415.142C55.5635 418.501 60.6133 418.897 63.9722 416.027C67.3311 413.156 67.7272 408.106 64.8568 404.748L23.2791 356.093L71.9339 314.515C75.2928 311.645 75.6889 306.595 72.8185 303.236C69.9482 299.877 64.8984 299.481 61.5394 302.351L6.80278 349.126ZM234.5 249.208L241.005 244.551L241.005 244.551L234.5 249.208ZM362.5 10.7081L364.436 2.94592L364.33 2.91948L364.224 2.89594L362.5 10.7081ZM721.798 287.025C726.115 287.965 730.377 285.227 731.317 280.91L746.637 210.559C747.577 206.242 744.839 201.98 740.522 201.04C736.205 200.1 731.943 202.838 731.003 207.155L717.385 269.689L654.851 256.071C650.534 255.131 646.272 257.869 645.332 262.186C644.392 266.503 647.129 270.765 651.447 271.705L721.798 287.025ZM11.3745 363.184C35.1871 365.051 54.1835 360.126 69.2037 350.06C84.1178 340.065 94.395 325.483 101.729 309.243C116.205 277.183 120.143 236.23 124.423 205.629C126.631 189.841 128.862 177.203 132.237 168.787C133.911 164.615 135.574 162.259 136.983 161.051C138.096 160.096 139.214 159.676 141.032 159.883C143.234 160.134 146.702 161.373 151.765 164.852C156.757 168.281 162.803 173.541 170.09 181.084C184.665 196.171 203.506 219.655 227.995 253.865L241.005 244.551C216.369 210.136 196.991 185.902 181.597 169.967C173.9 162 167.024 155.923 160.825 151.664C154.697 147.454 148.704 144.653 142.843 143.986C136.598 143.275 131.052 145.059 126.568 148.905C122.379 152.496 119.511 157.536 117.388 162.83C113.17 173.346 110.744 187.919 108.577 203.413C104.107 235.374 100.42 273.264 87.1464 302.658C80.605 317.144 71.976 328.941 60.2963 336.769C48.7227 344.525 33.4379 348.865 12.6255 347.233L11.3745 363.184ZM227.995 253.865C252.55 288.166 270.102 310.025 282.35 321.68C288.221 327.266 294.007 331.651 299.564 332.972C302.695 333.716 306.326 333.616 309.66 331.598C312.835 329.677 314.583 326.708 315.566 324.095C317.43 319.138 317.62 312.549 317.253 305.826C316.868 298.789 315.777 290.347 314.276 280.981C311.285 262.309 306.479 238.875 301.864 214.176C292.507 164.094 283.899 108.464 290.078 68.3882C293.159 48.41 299.712 33.753 310.235 25.2225C320.471 16.925 336.16 13.0893 360.776 18.5202L364.224 2.89594C336.715 -3.17318 315.451 0.397371 300.16 12.7933C285.155 24.9562 277.607 44.2796 274.265 65.9499C267.601 109.171 276.868 167.51 286.136 217.115C290.834 242.26 295.528 265.1 298.478 283.512C299.948 292.688 300.937 300.49 301.276 306.698C301.632 313.22 301.187 316.876 300.59 318.462C300.343 319.121 300.404 318.498 301.376 317.909C302.509 317.224 303.423 317.443 303.263 317.405C302.238 317.162 299.148 315.579 293.38 310.089C282.351 299.594 265.575 278.875 241.005 244.551L227.995 253.865ZM360.564 18.4702C448.802 40.4807 526.597 89.1317 588.113 141.297C649.633 193.465 694.455 248.794 716.769 283.532L730.231 274.884C707.045 238.789 661.167 182.268 598.462 129.094C535.753 75.9177 455.798 25.7355 364.436 2.94592L360.564 18.4702Z" fill="#64FFDA"/>
</g>
<defs>
<filter id="filter0_d_3_5" x="-0.000152588" y="0.00418091" width="750.822" height="425.941" filterUnits="userSpaceOnUse" color-interpolation-filters="sRGB">
<feFlood flood-opacity="0" result="BackgroundImageFix"/>
<feColorMatrix in="SourceAlpha" type="matrix" values="0 0 0 0 0 0 0 0 0 0 0 0 0 0 0 0 0 0 127 0" result="hardAlpha"/>
<feOffset dy="4"/>
<feGaussianBlur stdDeviation="2"/>
<feComposite in2="hardAlpha" operator="out"/>
<feColorMatrix type="matrix" values="0 0 0 0 0 0 0 0 0 0 0 0 0 0 0 0 0 0 0.25 0"/>
<feBlend mode="normal" in2="BackgroundImageFix" result="effect1_dropShadow_3_5"/>
<feBlend mode="normal" in="SourceGraphic" in2="effect1_dropShadow_3_5" result="shape"/>
</filter>
</defs>
</svg>
