<svg width="291" height="225" fill="none" xmlns="http://www.w3.org/2000/svg"><g filter="url(#a)"><path d="M284.639 207.078a2 2 0 0 0 1.973-2.027l-.246-17.999a2 2 0 1 0-3.999.055l.218 15.998-15.998.219a2 2 0 1 0 .054 3.999l17.998-.245Zm-100.075-46.149 1.988-.212-1.988.212Zm-93.763 15.878-1.546 1.27.012.014.012.014 1.522-1.298ZM19.654 1.271a2 2 0 0 0-2.824.147L4.781 14.79a2 2 0 0 0 2.972 2.677l10.71-11.887 11.887 10.71a2 2 0 0 0 2.677-2.972L19.654 1.271Zm266.353 202.374c-7.673-7.467-14.922-11.888-21.796-14.043-6.893-2.162-13.297-2.008-19.199-.498-11.644 2.979-21.42 11.31-29.166 17.099-3.99 2.981-7.33 5.214-10.228 6.125-1.406.441-2.602.535-3.657.315-1.035-.215-2.092-.765-3.182-1.877-2.266-2.31-4.53-6.892-6.631-15.066-2.083-8.102-3.94-19.448-5.596-34.983l-3.977.424c1.664 15.611 3.545 27.178 5.699 35.555 2.135 8.305 4.606 13.769 7.649 16.871 1.565 1.595 3.306 2.593 5.223 2.992 1.898.395 3.807.17 5.671-.415 3.639-1.144 7.491-3.798 11.423-6.737 8.099-6.053 17.091-13.697 27.763-16.427 5.255-1.345 10.896-1.479 17.012.439 6.135 1.923 12.86 5.947 20.202 13.092l2.79-2.866Zm-99.455-42.928c-1.66-15.581-3.382-25.999-5.283-32.364-.94-3.149-1.989-5.539-3.259-7.062-.653-.783-1.443-1.432-2.404-1.772-.995-.352-1.999-.31-2.931.012-1.712.591-3.176 2.124-4.435 3.825-1.316 1.776-2.663 4.095-4.046 6.74-2.757 5.273-5.848 12.22-9.255 19.38-3.433 7.217-7.229 14.747-11.484 21.413-4.266 6.685-8.911 12.368-13.988 16.001-5.021 3.593-10.392 5.14-16.321 3.758-6.024-1.405-12.948-5.905-20.824-15.138l-3.043 2.595c8.152 9.558 15.764 14.761 22.959 16.438 7.289 1.699 13.82-.295 19.557-4.4 5.681-4.065 10.652-10.239 15.032-17.102 4.392-6.882 8.274-14.594 11.724-21.846 3.478-7.309 6.475-14.058 9.188-19.245 1.351-2.585 2.585-4.687 3.715-6.214 1.187-1.602 2.037-2.255 2.527-2.424.169-.059.238-.041.29-.022.088.031.321.148.668.564.731.876 1.594 2.618 2.497 5.643 1.787 5.982 3.48 16.079 5.139 31.644l3.977-.424Zm-94.206 14.821C38.497 109.98 21.886 32.849 20.313 2.652l-3.994.208c1.608 30.88 18.446 108.878 72.936 175.217l3.091-2.539Z" fill="#64FFDA"/></g><defs><filter id="a" x=".267" y=".756" width="290.345" height="224.001" filterUnits="userSpaceOnUse" color-interpolation-filters="sRGB"><feFlood flood-opacity="0" result="BackgroundImageFix"/><feColorMatrix in="SourceAlpha" values="0 0 0 0 0 0 0 0 0 0 0 0 0 0 0 0 0 0 127 0" result="hardAlpha"/><feOffset dy="4"/><feGaussianBlur stdDeviation="2"/><feComposite in2="hardAlpha" operator="out"/><feColorMatrix values="0 0 0 0 0 0 0 0 0 0 0 0 0 0 0 0 0 0 0.25 0"/><feBlend in2="BackgroundImageFix" result="effect1_dropShadow_29_11"/><feBlend in="SourceGraphic" in2="effect1_dropShadow_29_11" result="shape"/></filter></defs></svg>