<svg width="40" height="40" fill="none" xmlns="http://www.w3.org/2000/svg"><g clip-path="url(#a)"><path d="M14.767 37.5h20.355C38.12 34.606 40 30.45 40 25.832 40 17.09 33.26 10 24.945 10S9.89 17.089 9.89 25.832c0 4.618 1.88 8.774 4.877 11.668Z" fill="#64FFDA" fill-opacity=".3"/><path d="M38.452 24.783c-.504.144-1.17.216-1.836.216-.667 0-1.335-.072-1.842-.217l-2.139-.613c-.505-.146-1.171-.218-1.838-.218-.666 0-1.334.072-1.84.218l-2.137.613c-.505.144-1.172.217-1.84.217-.666 0-1.332-.073-1.838-.217l-2.138-.613c-.506-.146-1.172-.218-1.84-.218-.666 0-1.333.072-1.838.218l-2.138.613c-.508.145-1.178.218-1.849.218-.664 0-1.327-.072-1.83-.216l-1.553-.44c-.043.49-.066.987-.066 1.488 0 4.618 1.88 8.774 4.877 11.668h20.355C38.12 34.606 40 30.45 40 25.832c0-.496-.022-.988-.065-1.473l-1.483.424Z" fill="#64FFDA"/><path d="M32.5 12.5h-15V5.833L35.834 2.5l-3.334 10Z" fill="#FD2155"/><path d="M32.5 9.166H6.68L.257 22.23a2.5 2.5 0 0 0 4.487 2.206l5.049-10.269H32.5a2.5 2.5 0 0 0 0-5Z" fill="#FD2155"/></g><defs><clipPath id="a"><path fill="#fff" d="M0 0h40v40H0z"/></clipPath></defs></svg>