<svg width="353" height="397" fill="none" xmlns="http://www.w3.org/2000/svg"><path d="M103.604 25s-1.359 12.089 0 19.592c3.673 20.282 27.958 18.652 32.917 38.6 2.14 8.608 1.327 22.808 1.327 22.808M159.604 13s-1.359 12.089 0 19.592c3.673 20.282 27.958 18.652 32.917 38.6C194.661 79.8 193.848 94 193.848 94" stroke="#FD215550" stroke-width="25" stroke-linecap="round"/><path d="M282.4 130.75H66.188c-7.309 0-13.238 5.963-13.238 13.312l.005 128.688c0 29.398 23.718 53.25 52.951 53.25h105.9c29.227 0 52.944-23.852 52.944-53.25h17.65c38.957 0 70.6-31.828 70.6-71s-31.66-71-70.6-71Zm0 106.5h-17.65v-71h17.65c19.443 0 35.3 15.947 35.3 35.5s-15.83 35.5-35.3 35.5Zm26.475 106.5H8.825c-4.874 0-8.825 3.994-8.825 8.875 0 14.699 11.853 26.625 26.475 26.625h264.75c14.622 0 26.475-11.92 26.475-26.625 0-4.881-3.971-8.875-8.825-8.875Z" fill="#64FFDA"/></svg>