<svg width="436" height="334" fill="none" xmlns="http://www.w3.org/2000/svg"><path d="M428.937 90.77c-.48 33.699-28.91 60.349-62.61 60.349h-4.69a15.849 15.849 0 0 0-11.1 4.48 15.429 15.429 0 0 0-4.51 7.87 14.493 14.493 0 0 0-.47 3.73v59.49a59.589 59.589 0 0 1-9.4 32.27c-8.83 13.78-14 29.55-14 45.91a28.7 28.7 0 0 1-8.593 20.46 28.677 28.677 0 0 1-20.617 8.21c-15.76-.29-28.12-13.84-28.12-29.61v-14.88l-7.81.92v14.9a28.697 28.697 0 0 1-29.22 28.67c-15.76-.29-28.11-13.84-28.11-29.61v-7.53c-7.82 3.26-52.12 3.26-64.42.11l-3.34-.26v8.62a28.7 28.7 0 0 1-8.593 20.46 28.677 28.677 0 0 1-20.617 8.21c-15.77-.29-28.12-13.84-28.12-29.61v-12.37l-2.61-.24v13.55c0 2.401-.296 4.792-.88 7.12a28.729 28.729 0 0 1-28.33 21.55c-14.41-.26-25.95-11.6-27.86-25.59a35.397 35.397 0 0 1-.26-4v-62.27a95.36 95.36 0 0 1 20.33-59 17.68 17.68 0 0 0 .49-20.88c-14.59-21.37-36.17-57.43-35.46-83 .18-7.4 2.21-13.89 6.83-18.92.28-.31.57-.62.86-.91 21-22 58-4.69 54.77 25.54a84.847 84.847 0 0 0 2.22 30.23 92.645 92.645 0 0 0 5.86 16.21 27.474 27.474 0 0 0 28.12 15.63 96.945 96.945 0 0 1 11.75-.7h120.47a33.847 33.847 0 0 0 32-23 32.838 32.838 0 0 0 1.82-10.92v-93.71A18.239 18.239 0 0 1 283.537.01a17.723 17.723 0 0 1 12.62 5.83 19.65 19.65 0 0 1 5.08 13.14 9.662 9.662 0 0 0 9.67 9.66h56.78a61.211 61.211 0 0 1 61.23 62.13h.02Z" fill="#64FFDA"/><path d="M423 110c6.627 0 12-9.402 12-21s-5.373-21-12-21-12 9.402-12 21 5.373 21 12 21ZM350 165.045c-2.191 4.014-3.715 9.224-4.376 14.955L254 133.215c5.116-7.72 8.951-18.233 11.021-30.215 11.274 17.141 35.849 44.467 84.979 62.045Z" fill="#383F4D"/></svg>