<svg width="37" height="37" fill="none" xmlns="http://www.w3.org/2000/svg"><g clip-path="url(#a)"><path d="M36.328 2.82 34.182.677a2.31 2.31 0 0 0-3.27 0L27.571 4.03a2.55 2.55 0 0 0-.622.994l-.88 2.639-5.51 5.512c-.874-.636-1.842-1.142-2.897-1.387-2.414-.557-4.842-.058-6.497 1.59a6.12 6.12 0 0 0-1.46 2.42c-.433 1.337-1.676 2.363-3.046 2.486-1.707.174-3.307.831-4.526 2.06-3.296 3.288-2.701 9.214 1.31 13.224 4.001 4.002 9.93 4.59 13.217 1.301a7.586 7.586 0 0 0 2.06-4.532c.126-1.355 1.144-2.613 2.49-3.047a5.891 5.891 0 0 0 2.414-1.463c1.653-1.654 2.15-4.075 1.525-6.487-.244-1.057-.75-2.023-1.383-2.899l5.51-5.51 2.64-.88a2.61 2.61 0 0 0 .995-.62l3.35-3.346c.97-.901.97-2.36.067-3.264ZM15.031 25.437a3.47 3.47 0 0 1 0-6.937c1.915 0 3.404 1.554 3.404 3.469.065 1.915-1.489 3.468-3.404 3.468Z" fill="#FD2155"/></g><defs><clipPath id="a"><path fill="#fff" d="M0 0h37v37H0z"/></clipPath></defs></svg>