<svg width="276" height="312" fill="none" xmlns="http://www.w3.org/2000/svg"><g stroke-width="10"><path d="M267.714 214.466c0 24.494-19.832 44.34-44.285 44.34-24.454 0-44.286-19.846-44.286-44.34 0-24.494 19.832-44.34 44.286-44.34 24.453 0 44.285 19.846 44.285 44.34ZM141.543 155.915c0 24.494-19.833 44.341-44.286 44.341-24.453 0-44.286-19.847-44.286-44.341 0-24.493 19.833-44.34 44.286-44.34 24.453 0 44.286 19.847 44.286 44.34Z" stroke="#FD2155"/><rect x="6.406" y="2.987" width="88.584" height="88.668" rx="15" transform="rotate(-20.02 661.375 -79.116) skewX(-.041)" stroke="#64FFDA"/><rect x="6.406" y="2.987" width="88.584" height="88.668" rx="15" transform="rotate(-20.02 102.01 19.857) skewX(-.041)" stroke="#64FFDA"/></g></svg>